<svg width="21" height="21" viewBox="0 0 21 21" fill="none" xmlns="http://www.w3.org/2000/svg">
<path d="M20.1279 20.8955C18.6913 20.8955 17.2649 20.8955 15.8164 20.8955C15.8164 20.8262 15.8164 20.7616 15.8164 20.6969C15.8164 18.3624 15.8161 16.0279 15.8167 13.6937C15.8167 13.1968 15.7798 12.7061 15.655 12.2215C15.1396 10.2229 12.9138 10.3397 12.0283 11.2869C11.5833 11.7629 11.2926 12.3009 11.2803 12.9657C11.2775 13.1239 11.2683 13.2824 11.2683 13.4405C11.2674 15.8566 11.2677 18.2729 11.2677 20.6889C11.2677 20.7542 11.2677 20.8195 11.2677 20.8943C9.82528 20.8943 8.39918 20.8943 6.96387 20.8943C6.96387 16.4389 6.96387 11.9882 6.96387 7.5292C8.39672 7.5292 9.82282 7.5292 11.2655 7.5292C11.2655 8.13275 11.2655 8.72741 11.2655 9.32207C11.2769 9.32697 11.2883 9.33218 11.2999 9.33709C11.3307 9.2954 11.362 9.25432 11.3924 9.21233C11.8237 8.61338 12.3191 8.08248 12.9774 7.72354C13.7126 7.3223 14.5068 7.18774 15.3333 7.21164C16.2283 7.2377 17.0775 7.43909 17.8428 7.92064C18.8238 8.53798 19.4216 9.4413 19.7717 10.5249C20.0446 11.3693 20.134 12.2405 20.135 13.1227C20.1371 15.6613 20.1359 18.2002 20.1356 20.7389C20.1356 20.7885 20.131 20.8382 20.1279 20.8955Z" fill="black"/>
<path d="M4.33418 20.9028C2.90256 20.9028 1.48478 20.9028 0.0534668 20.9028C0.0534668 16.445 0.0534668 11.9896 0.0534668 7.52539C1.47678 7.52539 2.89857 7.52539 4.33418 7.52539C4.33418 11.9792 4.33418 16.4343 4.33418 20.9028Z" fill="black"/>
<path d="M2.37714 0.87305C3.72486 0.87121 4.67856 1.82969 4.68317 3.19062C4.68748 4.53715 3.71933 5.49011 2.34548 5.49072C1.00452 5.49164 0.0483619 4.53286 0.0459031 3.18541C0.0434443 1.83704 1.01344 0.874889 2.37714 0.87305Z" fill="black"/>
</svg>
